<svg xmlns="http://www.w3.org/2000/svg" width="215" height="102" viewBox="0 0 215 102"><g><g><g><g><text dominant-baseline="text-before-edge" style="line-height:22px" fill="#333" font-family="'OpenSans','OpenSans'" font-size="18" font-style="none" font-weight="400" transform="translate(0 61)"><tspan style="font-kerning:normal">Payment online or in cash upon receipt</tspan></text></g></g><g><path d="M136 5.937v26.125c0 3.273-2.712 5.938-6.042 5.938H84.042C80.712 38 78 35.335 78 32.063V5.937C78 2.665 80.711 0 84.042 0h45.916C133.288 0 136 2.665 136 5.937zm-2.417 26.125V16.625H80.417v15.437c0 1.965 1.626 3.563 3.625 3.563h45.916c1.999 0 3.625-1.598 3.625-3.563zm0-26.125c0-1.964-1.626-3.562-3.625-3.562H84.042c-1.999 0-3.625 1.598-3.625 3.562v1.188h53.166zm0 8.313V9.5H80.417v4.75zm-31.416 10.687c0 .656-.542 1.188-1.209 1.188h-14.5a1.198 1.198 0 0 1-1.208-1.187c0-.656.541-1.188 1.208-1.188h14.5c.667 0 1.209.532 1.209 1.187zm0 4.75c0 .656-.542 1.188-1.209 1.188h-14.5a1.199 1.199 0 0 1-1.208-1.187c0-.656.541-1.188 1.208-1.188h14.5c.667 0 1.209.532 1.209 1.188zm26.583-4.75v2.375c0 1.965-1.626 3.563-3.625 3.563h-2.417c-1.998 0-3.625-1.598-3.625-3.563v-2.375c0-1.964 1.627-3.562 3.625-3.562h2.417c1.999 0 3.625 1.598 3.625 3.562zm-2.417 0c0-.655-.541-1.187-1.208-1.187h-2.417c-.667 0-1.208.532-1.208 1.188v2.375c0 .655.541 1.187 1.208 1.187h2.417c.667 0 1.208-.532 1.208-1.187z"/></g></g></g></svg>